<svg width="857" height="143" viewBox="0 0 857 143" fill="none" xmlns="http://www.w3.org/2000/svg">
<path d="M459.638 141.389C459.428 137.343 459.125 133.979 459.102 130.609C459.031 120.15 458.99 109.691 459.12 99.2325C459.154 96.5449 458.268 95.7404 455.633 95.7578C444.975 95.8336 434.318 95.6762 423.662 95.6996C415.89 95.717 408.032 96.2417 401.17 89.7297C400.989 91.6478 400.803 92.7088 400.796 93.7699C400.727 106.164 400.709 118.559 400.61 130.953C400.563 136.486 397.881 139.925 392.664 140.858C392.512 139.261 392.233 137.687 392.233 136.113C392.18 119.072 392.134 102.025 392.197 84.9841C392.203 82.6638 391.539 81.049 389.79 79.469C378.217 69.0276 366.738 58.4872 355.27 47.9349C353.865 46.6466 352.88 46.5241 351.376 47.9058C339.617 58.7203 327.747 69.4124 316.029 80.2736C315.078 81.1539 314.601 82.9671 314.578 84.3546C314.338 102.072 314.216 119.795 314.07 137.512C314.065 138.555 314.07 139.605 314.07 140.636C309.739 140.748 306.136 136.759 306.072 131.874C305.921 120.063 305.88 108.246 305.798 96.4342C305.786 94.522 305.798 92.6155 305.798 90.9423C303.157 90.9423 300.82 91.3155 298.691 90.8083C297.285 90.476 296.184 88.8844 294.569 87.5377C314.292 69.5058 333.687 51.7827 353.271 33.8789C358.081 38.2572 362.657 42.3965 367.217 46.5591C379.011 57.3328 390.856 68.054 402.558 78.9269C408.019 84.0047 414.222 86.4767 421.744 86.3951C438.983 86.2143 456.228 86.3484 473.472 86.3658C477.117 86.3658 477.997 87.6309 475.944 90.6217C474.644 92.5165 472.679 94.5336 470.61 95.1807C467.887 96.0261 467.782 97.606 467.764 99.6814C467.677 110.234 467.567 120.792 467.502 131.344C467.479 135.087 466.308 138.182 462.833 140.036C462.023 140.468 461.125 140.753 459.643 141.365L459.638 141.389Z" fill="#327A66"/>
<path d="M384.898 24.6592C385.678 23.155 386.053 22.2048 386.624 21.3944C390.757 15.4478 395.631 10.1484 401.968 6.60384C415.522 -0.975073 432.446 -1.51726 446.747 8.55104C454.868 14.2643 460.594 21.7967 464.098 30.8622C467.963 40.878 468.756 51.2612 465.69 62.1165C461.62 59.0033 461.084 54.8116 460.908 50.6024C460.477 40.1901 457.854 30.5473 451.05 22.4379C445.319 15.5995 438.404 10.3467 429.311 9.02909C416.816 7.22181 405.991 10.8597 397.013 19.8029C393.847 22.9568 389.882 24.0354 384.892 24.6649L384.898 24.6592Z" fill="#F3D828"/>
<path d="M406.259 52.6026C399.222 52.6026 392.185 52.626 385.148 52.5676C384.548 52.5676 383.837 52.1537 383.365 51.7223C377.501 46.388 371.67 41.0185 365.84 35.6492C365.636 35.4626 365.526 35.1828 364.995 34.3783C367.304 34.3783 369.25 34.3783 371.191 34.3783C375.838 34.3783 380.49 34.3258 385.137 34.3958C386.152 34.4132 387.434 34.5415 388.122 35.1478C394.325 40.6571 400.429 46.2829 406.557 51.8739C406.458 52.1187 406.358 52.3636 406.259 52.6084V52.6026Z" fill="#3A9CE8"/>
<path d="M468.103 78.8021C460.85 78.8021 453.831 78.8138 446.811 78.7788C446.281 78.7788 445.628 78.534 445.232 78.1841C438.983 72.5758 432.773 66.9265 426.594 61.3298C426.733 60.9859 426.791 60.6827 426.855 60.6827C433.724 60.6127 440.597 60.5253 447.464 60.5661C448.321 60.5661 449.348 61.1025 450.012 61.7029C455.906 67.0081 461.737 72.3776 467.572 77.7469C467.753 77.916 467.812 78.2192 468.098 78.8079L468.103 78.8021Z" fill="#3A9CE8"/>
<path d="M434.831 78.5604C428.395 78.5604 421.953 78.6829 415.522 78.473C413.995 78.4263 412.229 77.5984 411.033 76.584C405.169 71.5936 399.461 66.4225 393.695 61.3154C393.8 61.0473 393.906 60.7849 394.01 60.5168C399.38 60.5168 404.766 60.7382 410.118 60.441C414.164 60.2194 417.178 61.2513 420.099 64.2712C424.792 69.11 430.063 73.3833 435.093 77.9016L434.838 78.5604H434.831Z" fill="#3A9CE8"/>
<path d="M440.113 52.6476C432.395 52.6476 425.462 52.7351 418.537 52.5601C417.359 52.531 416.041 51.5748 415.079 50.7178C409.605 45.8324 404.218 40.8478 398.808 35.8807C398.482 35.5834 398.248 35.1811 397.857 34.6797C404.44 34.6797 410.794 34.3066 417.073 34.8546C419.726 35.0878 422.547 36.8602 424.699 38.6499C429.811 42.8883 434.568 47.5581 440.113 52.6476Z" fill="#3A9CE8"/>
<path d="M30.8402 137.451C23.8954 137.451 17.9765 136.188 13.0836 133.663C8.26964 131.138 4.12645 127.744 0.654053 123.483L9.88746 114.841C12.8074 118.392 16.0037 121.076 19.476 122.891C23.0272 124.706 27.0522 125.613 31.5504 125.613C36.838 125.613 40.8233 124.43 43.5066 122.062C46.1898 119.694 47.5313 116.498 47.5313 112.474C47.5313 109.238 46.5843 106.673 44.6903 104.779C42.7962 102.885 39.4422 101.464 34.6283 100.517L27.2888 99.2153C19.2393 97.7158 13.202 95.072 9.1772 91.284C5.15237 87.4959 3.13997 82.2874 3.13997 75.6583C3.13997 72.028 3.81077 68.7529 5.15237 65.833C6.5729 62.8342 8.5064 60.3482 10.9528 58.3752C13.4782 56.3234 16.5166 54.745 20.0679 53.6402C23.6193 52.5353 27.6046 51.9829 32.024 51.9829C38.2584 51.9829 43.6643 53.0878 48.2415 55.2975C52.8189 57.4283 56.7253 60.5454 59.961 64.6492L50.6092 72.9356C48.4784 70.1735 45.874 67.9638 42.7962 66.3065C39.7185 64.6492 35.891 63.8205 31.3138 63.8205C26.5786 63.8205 22.9089 64.7676 20.3046 66.6616C17.7004 68.5557 16.3981 71.3178 16.3981 74.9481C16.3981 78.4204 17.4635 81.0247 19.5943 82.7609C21.7251 84.4182 25.0397 85.6808 29.538 86.549L36.8775 88.0879C45.1638 89.6662 51.2011 92.3494 54.9891 96.1375C58.8561 99.9255 60.7895 105.134 60.7895 111.763C60.7895 115.63 60.1187 119.142 58.7772 122.299C57.4355 125.456 55.4626 128.178 52.8583 130.467C50.3329 132.677 47.2157 134.413 43.5066 135.675C39.7974 136.859 35.5752 137.451 30.8402 137.451ZM99.5765 137.451C95.3149 137.451 91.4085 136.701 87.8573 135.202C84.3848 133.702 81.4254 131.572 78.9789 128.81C76.5325 125.969 74.6384 122.575 73.2968 118.629C71.9553 114.604 71.2844 110.145 71.2844 105.253C71.2844 100.36 71.9553 95.9402 73.2968 91.9943C74.6384 87.9694 76.5325 84.576 78.9789 81.8139C81.4254 78.9728 84.3848 76.8026 87.8573 75.3031C91.4085 73.8038 95.3149 73.054 99.5765 73.054C103.838 73.054 107.705 73.8038 111.177 75.3031C114.729 76.8026 117.728 78.9728 120.174 81.8139C122.621 84.576 124.515 87.9694 125.856 91.9943C127.198 95.9402 127.869 100.36 127.869 105.253C127.869 110.145 127.198 114.604 125.856 118.629C124.515 122.575 122.621 125.969 120.174 128.81C117.728 131.572 114.729 133.702 111.177 135.202C107.705 136.701 103.838 137.451 99.5765 137.451ZM99.5765 126.797C103.996 126.797 107.547 125.456 110.23 122.772C112.914 120.01 114.255 115.906 114.255 110.461V100.044C114.255 94.5985 112.914 90.5343 110.23 87.8511C107.547 85.089 103.996 83.708 99.5765 83.708C95.1571 83.708 91.6057 85.089 88.9227 87.8511C86.2394 90.5343 84.8977 94.5985 84.8977 100.044V110.461C84.8977 115.906 86.2394 120.01 88.9227 122.772C91.6057 125.456 95.1571 126.797 99.5765 126.797ZM154.913 136.031C150.493 136.031 147.178 134.926 144.969 132.716C142.837 130.427 141.772 127.271 141.772 123.246V48.4315H154.675V125.495H163.199V136.031H154.913ZM220.156 136.031C216.762 136.031 214.159 135.083 212.344 133.19C210.528 131.217 209.424 128.731 209.029 125.732H208.437C207.254 129.599 205.083 132.519 201.927 134.492C198.77 136.464 194.942 137.451 190.444 137.451C184.051 137.451 179.12 135.794 175.647 132.479C172.253 129.165 170.557 124.706 170.557 119.103C170.557 112.947 172.766 108.33 177.185 105.253C181.684 102.175 188.234 100.636 196.837 100.636H207.964V95.4272C207.964 91.6392 206.938 88.7192 204.885 86.6673C202.834 84.6154 199.637 83.5895 195.297 83.5895C191.667 83.5895 188.707 84.3787 186.419 85.9571C184.13 87.5355 182.197 89.5478 180.619 91.9943L172.923 85.0101C174.976 81.5377 177.856 78.6966 181.566 76.4869C185.275 74.1983 190.129 73.054 196.126 73.054C204.097 73.054 210.212 74.9086 214.474 78.6177C218.736 82.3268 220.867 87.6538 220.867 94.5985V125.495H227.377V136.031H220.156ZM194.113 127.626C198.138 127.626 201.453 126.758 204.057 125.021C206.662 123.206 207.964 120.799 207.964 117.801V108.922H197.073C188.155 108.922 183.696 111.684 183.696 117.209V119.339C183.696 122.102 184.605 124.193 186.419 125.613C188.313 126.955 190.878 127.626 194.113 127.626ZM239.55 136.031V74.4745H252.453V86.3122H253.045C253.913 83.1555 255.729 80.3934 258.49 78.0258C261.253 75.6583 265.08 74.4745 269.973 74.4745H273.406V86.904H268.316C263.186 86.904 259.24 87.7327 256.478 89.39C253.794 91.0473 252.453 93.4937 252.453 96.7293V136.031H239.55ZM536.373 137.451C525.561 137.451 517.077 133.821 510.922 126.56C504.766 119.221 501.688 108.607 501.688 94.717C501.688 87.7722 502.478 81.6561 504.056 76.3685C505.634 71.0811 507.923 66.6221 510.922 62.992C513.921 59.3617 517.55 56.639 521.812 54.8239C526.153 52.9298 531.007 51.9829 536.373 51.9829C543.554 51.9829 549.552 53.5613 554.366 56.7179C559.259 59.8747 563.087 64.5309 565.848 70.6865L554.603 76.842C553.183 72.8962 550.972 69.7789 547.974 67.4903C545.053 65.1228 541.187 63.939 536.373 63.939C529.981 63.939 524.97 66.1091 521.339 70.4496C517.708 74.7901 515.894 80.7879 515.894 88.443V100.991C515.894 108.646 517.708 114.644 521.339 118.984C524.97 123.325 529.981 125.495 536.373 125.495C541.345 125.495 545.369 124.232 548.447 121.707C551.605 119.103 553.932 115.788 555.431 111.763L566.204 118.274C563.442 124.272 559.575 128.967 554.603 132.361C549.631 135.754 543.554 137.451 536.373 137.451ZM585.474 63.4655C582.791 63.4655 580.819 62.8342 579.555 61.5714C578.372 60.3087 577.78 58.6909 577.78 56.7179V54.7056C577.78 52.7326 578.372 51.1148 579.555 49.8521C580.819 48.5895 582.791 47.958 585.474 47.958C588.158 47.958 590.091 48.5895 591.274 49.8521C592.459 51.1148 593.051 52.7326 593.051 54.7056V56.7179C593.051 58.6909 592.459 60.3087 591.274 61.5714C590.091 62.8342 588.158 63.4655 585.474 63.4655ZM578.963 74.4745H591.867V136.031H578.963V74.4745ZM609.818 136.031V74.4745H622.722V86.3122H623.314C624.182 83.1555 625.996 80.3934 628.759 78.0258C631.521 75.6583 635.348 74.4745 640.242 74.4745H643.674V86.904H638.583C633.455 86.904 629.509 87.7327 626.746 89.39C624.063 91.0473 622.722 93.4937 622.722 96.7293V136.031H609.818ZM677.877 137.451C673.458 137.451 669.511 136.701 666.039 135.202C662.567 133.702 659.646 131.572 657.279 128.81C654.911 125.969 653.097 122.575 651.834 118.629C650.572 114.604 649.939 110.145 649.939 105.253C649.939 100.36 650.572 95.9402 651.834 91.9943C653.097 87.9694 654.911 84.576 657.279 81.8139C659.646 78.9728 662.567 76.8026 666.039 75.3031C669.511 73.8038 673.458 73.054 677.877 73.054C684.033 73.054 689.084 74.4351 693.029 77.1972C696.975 79.9593 699.856 83.6289 701.671 88.2063L691.017 93.1781C690.149 90.3371 688.609 88.0879 686.4 86.4306C684.27 84.6943 681.428 83.8263 677.877 83.8263C673.142 83.8263 669.551 85.3258 667.105 88.3246C664.737 91.2445 663.553 95.0721 663.553 99.8072V110.816C663.553 115.551 664.737 119.418 667.105 122.417C669.551 125.337 673.142 126.797 677.877 126.797C681.665 126.797 684.664 125.89 686.873 124.074C689.163 122.18 690.977 119.694 692.319 116.617L702.144 121.825C700.093 126.876 697.014 130.743 692.91 133.426C688.808 136.109 683.796 137.451 677.877 137.451ZM727.094 136.031C722.674 136.031 719.36 134.926 717.15 132.716C715.02 130.427 713.954 127.271 713.954 123.246V48.4315H726.857V125.495H735.381V136.031H727.094ZM771.386 137.451C766.966 137.451 763.02 136.701 759.548 135.202C756.075 133.702 753.115 131.572 750.669 128.81C748.224 125.969 746.329 122.575 744.987 118.629C743.725 114.604 743.094 110.145 743.094 105.253C743.094 100.36 743.725 95.9402 744.987 91.9943C746.329 87.9694 748.224 84.576 750.669 81.8139C753.115 78.9728 756.075 76.8026 759.548 75.3031C763.02 73.8038 766.966 73.054 771.386 73.054C775.884 73.054 779.829 73.8432 783.223 75.4215C786.696 76.9998 789.576 79.2095 791.864 82.0507C794.153 84.8128 795.85 88.0483 796.954 91.7575C798.139 95.4667 798.731 99.452 798.731 103.714V108.567H756.47V110.58C756.47 115.315 757.85 119.221 760.613 122.299C763.454 125.298 767.479 126.797 772.688 126.797C776.476 126.797 779.671 125.969 782.276 124.311C784.88 122.654 787.091 120.405 788.905 117.564L796.481 125.021C794.193 128.81 790.878 131.848 786.537 134.137C782.197 136.346 777.147 137.451 771.386 137.451ZM771.386 83.116C769.175 83.116 767.124 83.5106 765.23 84.2998C763.414 85.089 761.836 86.1938 760.495 87.6144C759.233 89.0348 758.245 90.7316 757.535 92.7046C756.825 94.6776 756.47 96.8478 756.47 99.2153V100.044H785.117V98.8601C785.117 94.1251 783.894 90.3371 781.448 87.4959C779.001 84.576 775.648 83.116 771.386 83.116ZM832.074 137.451C826.234 137.451 821.341 136.425 817.394 134.373C813.448 132.321 810.016 129.48 807.095 125.85L815.382 118.274C817.67 121.036 820.195 123.206 822.958 124.785C825.798 126.284 829.074 127.034 832.784 127.034C836.571 127.034 839.373 126.324 841.188 124.903C843.083 123.404 844.029 121.352 844.029 118.747C844.029 116.775 843.359 115.117 842.016 113.776C840.754 112.355 838.505 111.448 835.269 111.053L829.587 110.343C823.274 109.554 818.302 107.738 814.671 104.897C811.121 101.977 809.344 97.6764 809.344 91.9943C809.344 88.9954 809.898 86.3516 811.002 84.063C812.107 81.6955 813.645 79.7225 815.619 78.1441C817.67 76.4869 820.077 75.2242 822.84 74.3562C825.68 73.488 828.798 73.054 832.192 73.054C837.716 73.054 842.213 73.9221 845.686 75.6583C849.238 77.3945 852.394 79.8014 855.157 82.8793L847.225 90.4554C845.647 88.5613 843.556 86.9435 840.951 85.6019C838.426 84.1814 835.506 83.4711 832.192 83.4711C828.64 83.4711 825.996 84.1814 824.26 85.6019C822.603 87.0225 821.775 88.877 821.775 91.1656C821.775 93.5333 822.524 95.3089 824.023 96.4926C825.522 97.6764 827.93 98.5445 831.244 99.097L836.926 99.8072C843.714 100.833 848.646 102.845 851.723 105.844C854.881 108.764 856.459 112.71 856.459 117.682C856.459 120.681 855.867 123.404 854.683 125.85C853.579 128.218 851.96 130.269 849.83 132.006C847.698 133.742 845.134 135.083 842.134 136.031C839.136 136.977 835.782 137.451 832.074 137.451Z" fill="#327A66"/>
</svg>
